<?xml version="1.0" encoding="UTF-8"?>
<!DOCTYPE svg PUBLIC "-//W3C//DTD SVG 1.1//EN" "http://www.w3.org/Graphics/SVG/1.1/DTD/svg11.dtd">
<!-- Creator: CorelDRAW -->
<svg xmlns="http://www.w3.org/2000/svg" xml:space="preserve" width="370mm" height="241.5mm" style="shape-rendering:geometricPrecision; text-rendering:geometricPrecision; image-rendering:optimizeQuality; fill-rule:evenodd; clip-rule:evenodd"
viewBox="0 0 370 241.5"
 xmlns:xlink="http://www.w3.org/1999/xlink">
 <defs>
  <style type="text/css">
   <![CDATA[
    .str2 {stroke:#8B8989;stroke-width:0.0734}
    .str1 {stroke:#2B2A29;stroke-width:0.0811}
    .str0 {stroke:#2B2A29;stroke-width:0.2}
    .fil4 {fill:#1F1B20}
    .fil3 {fill:#2B2A29}
    .fil2 {fill:#C83623}
    .fil1 {fill:#D11A0A}
    .fil0 {fill:#DB3924}
    .fil5 {fill:#1F1B20;fill-rule:nonzero}
    .fil6 {fill:#8B8989;fill-rule:nonzero}
   ]]>
  </style>
 </defs>
 <g id="Слой_x0020_1">
  <metadata id="CorelCorpID_0Corel-Layer"/>
  <g id="_262112840">
   <polygon id="_262100024" class="fil0" points="296.974,166.564 296.974,186.298 291.75,186.298 291.75,191.984 308.953,191.984 308.953,186.298 303.684,186.298 303.684,166.564 308.953,166.564 308.953,160.877 291.75,160.877 291.75,166.564 "/>
   <polygon id="_262100336" class="fil0" points="326.156,169.153 347.908,191.984 353.402,191.984 353.402,166.564 358.941,166.564 358.941,160.877 341.738,160.877 341.738,166.564 347.232,166.564 347.232,182.987 326.561,160.877 314.627,160.877 314.627,166.564 320.031,166.564 320.031,186.298 314.627,186.298 314.627,191.984 331.831,191.984 331.831,186.298 326.156,186.298 "/>
   <polygon id="_262100576" class="fil1" points="296.974,166.564 296.974,186.298 291.75,186.298 291.75,191.984 308.953,191.984 308.953,186.298 303.684,186.298 303.684,166.564 308.953,166.564 308.953,160.877 291.75,160.877 291.75,166.564 "/>
   <polygon id="_262100816" class="fil2" points="326.156,169.153 347.908,191.984 353.402,191.984 353.402,166.564 358.941,166.564 358.941,160.877 341.738,160.877 341.738,166.564 347.232,166.564 347.232,182.987 326.561,160.877 314.627,160.877 314.627,166.564 320.031,166.564 320.031,186.298 314.627,186.298 314.627,191.984 331.831,191.984 331.831,186.298 326.156,186.298 "/>
   <polygon id="_262101080" class="fil1" points="326.156,169.153 347.908,191.984 353.402,191.984 353.402,166.564 358.941,166.564 358.941,160.877 341.738,160.877 341.738,166.564 347.232,166.564 347.232,182.987 326.561,160.877 314.627,160.877 314.627,166.564 320.031,166.564 320.031,186.298 314.627,186.298 314.627,191.984 331.831,191.984 331.831,186.298 326.156,186.298 "/>
   <polygon id="_262101320" class="fil1" points="296.974,166.564 296.974,186.298 291.75,186.298 291.75,191.984 308.953,191.984 308.953,186.298 303.684,186.298 303.684,166.564 308.953,166.564 308.953,160.877 291.75,160.877 291.75,166.564 "/>
   <polygon id="_262102976" class="fil3" points="68.81,98.477 98.176,41.9907 104.789,29.5976 112.157,16.6232 117.722,10.9965 121.794,8.2217 126.649,6.6561 131.9,6.8267 136.652,7.695 140.289,9.8268 142.899,12.035 146.993,15.7939 149.958,19.7776 151.402,22.9321 153.211,26.3889 155.392,28.7681 157.26,29.4689 159.785,29.4459 161.954,29.0009 165.521,27.3965 172.105,25.5441 177.561,24.2964 183.047,23.1831 188.034,23.1261 192.632,24.2573 195.035,26.0304 197.121,28.5202 198.93,30.9772 200.768,33.7907 203.047,38.2705 204.935,43.2385 206.656,47.7145 207.638,51.8338 209.029,56.1044 210.656,61.8864 212.992,68.1566 215.379,74.675 218.03,81.457 219.473,87.2 220.051,89.75 213.83,82.611 209.475,76.905 202.354,67.4127 198.872,62.4367 196.228,58.4063 190.611,51.6092 185.912,46.414 182.694,43.5429 178.994,40.7328 176.699,39.9833 173.805,40.1073 169.66,41.6883 165.409,43.3508 159.898,45.6179 155.804,47.4317 150.136,48.9429 144.782,48.3383 141.003,47.1293 137.697,44.6357 135.335,42.1417 131.713,40.0258 127.816,39.6483 123.998,40.177 119.589,42.2929 116.362,46.3738 112.976,51.3609 107.308,58.0111 86.209,83.704 80.856,89.75 76.132,94.586 71.644,98.137 69.008,100.14 67.747,101.121 "/>
   <polygon id="_262103024" class="fil4 str0" points="16.5993,103.372 31.1013,113.272 262.839,113.644 277.933,104.133 "/>
   <path id="_262104416" class="fil5 str1" d="M109.179 140.181l-10.5652 0 0 38.7861 10.5652 0 0 11.177 -33.9149 0 0 -11.177 10.4764 0 0 -33.281 -24.4153 38.2022 -4.9718 0 -24.06 -38.0353 0 33.1141 10.565 0 0 11.177 -33.9148 0 0 -11.177 10.4763 0 0 -38.7861 -10.4763 0 0 -11.177 26.1908 0.0834 23.7049 37.0344 24.504 -37.0344 25.8357 -0.0834 0 11.177zm35.3354 16.2651l9.4109 -16.2651 -9.8549 0 0 -11.177 42.8819 0 0 11.177 -9.766 0 22.6395 38.7861 11.1866 0 0 11.177 -32.9383 0 0 -11.177 7.5466 0 -6.7476 -11.3439 -26.901 0 -6.4811 11.3439 8.168 0 0 11.177 -33.471 0 0 -11.177 11.3641 0 6.5699 -11.3439 -3.5513 0 0 -11.1771 9.5885 0 0.3552 0zm13.9388 0l13.6725 0 -7.0138 -11.7609 -6.6587 11.7609zm63.657 -27.4421l70.2269 0 0 19.6849 -12.1631 0 0 -8.5079 -33.6486 0 0 13.0955 26.3684 0 0 11.1771 -26.3684 0 0 14.5135 11.0978 0 0 11.177 -35.513 0 0 -11.177 10.8315 0 0 -14.4301 -6.3924 0 0 -11.2605 6.3924 0 0 -13.0955 -10.8315 0 0 -11.177z"/>
   <path id="_262105760" class="fil6 str2" d="M258.55 222.607l-0.4682 1.3466c-1.0808,3.0672 -2.882,5.4112 -5.4037,7.0321 -2.5218,1.6208 -5.6199,2.4313 -9.2944,2.4313 -2.3535,0 -4.491,-0.3429 -6.4123,-1.0287 -1.9213,-0.6857 -3.5665,-1.6458 -4.9353,-2.8801 -1.369,-1.2344 -2.4318,-2.7181 -3.1883,-4.4512 -0.7565,-1.7331 -1.1347,-3.6594 -1.1347,-5.779 0,-1.7206 0.3062,-3.4288 0.9186,-5.1245 0.6124,-1.6956 1.5491,-3.223 2.8099,-4.582 1.2609,-1.3591 2.864,-2.4563 4.8093,-3.2916 1.9454,-0.8354 4.2389,-1.2531 6.8807,-1.2531 1.6571,0 3.2482,0.212 4.7732,0.6359 1.525,0.4239 2.912,1.0348 4.1609,1.8328l0 -1.9824 5.1514 0 0 10.9595 -4.8993 0 -0.2521 -1.3091c-0.1682,-0.8229 -0.5404,-1.5586 -1.1168,-2.2069 -0.5764,-0.6484 -1.2789,-1.1845 -2.1074,-1.6084 -0.8287,-0.4239 -1.7293,-0.7481 -2.7019,-0.9725 -0.9726,-0.2245 -1.9272,-0.3367 -2.864,-0.3367 -1.4889,0 -2.8519,0.2182 -4.0887,0.6546 -1.2368,0.4364 -2.2935,1.0536 -3.1701,1.8515 -0.8767,0.798 -1.5552,1.7581 -2.0355,2.8802 -0.4803,1.1221 -0.7205,2.3565 -0.7205,3.7031 0,1.3964 0.2462,2.6619 0.7386,3.7965 0.4923,1.1347 1.1827,2.1072 2.0714,2.9176 0.8885,0.8104 1.9633,1.4401 3.2242,1.8889 1.2608,0.4489 2.6478,0.6733 4.1608,0.6733 2.4256,0 4.431,-0.5236 6.016,-1.571 1.5851,-1.0473 2.846,-2.6931 3.7826,-4.9374l0.6485 -1.6084 4.6471 2.3191zm26.7662 1.4214l5.1876 0 0 8.9023 -28.0271 0 0 -5.0122 4.2509 0 0 -17.3932 -4.2509 0 0 -5.0122 13.7613 0 0 5.0122 -4.1788 0 0 17.3932 13.257 0 0 -3.8901zm42.5809 -18.5528l0 5.0123 -4.2148 0 0 13.9145c0,1.3965 -0.2763,2.6495 -0.8286,3.7592 -0.5524,1.1097 -1.345,2.051 -2.3777,2.8241 -1.0326,0.773 -2.2935,1.3652 -3.7825,1.7767 -1.489,0.4114 -3.1822,0.6172 -5.0795,0.6172 -4.0107,0 -7.1148,-0.7793 -9.3123,-2.3378 -2.1975,-1.5586 -3.2963,-3.7717 -3.2963,-6.6394l0 -13.9145 -4.1788 0 0 -5.0123 13.7614 0 0 5.0123 -4.2149 0 0 13.9145c0,0.8977 0.2101,1.6334 0.6304,2.2069 0.4203,0.5735 0.9607,1.0224 1.6211,1.3466 0.6605,0.3241 1.393,0.5423 2.1975,0.6546 0.8046,0.1122 1.6031,0.1683 2.3956,0.1683 1.7772,0 3.1522,-0.1683 4.1249,-0.505 0.9726,-0.3366 1.6811,-0.7356 2.1254,-1.1969 0.4443,-0.4614 0.7024,-0.9352 0.7746,-1.4214 0.072,-0.4863 0.108,-0.879 0.108,-1.1783l0 -13.9893 -4.2149 0 0 -5.0123 13.7614 0zm27.1625 12.7925c0.8885,0.4488 1.609,0.9413 2.1614,1.4774 0.5524,0.5362 0.9787,1.0848 1.2789,1.6458 0.3002,0.5611 0.4983,1.116 0.5944,1.6646 0.096,0.5486 0.1441,1.0348 0.1441,1.4587 0,0.2245 -0.0301,0.5673 -0.0901,1.0287 -0.06,0.4613 -0.1981,0.9787 -0.4143,1.5523 -0.2161,0.5735 -0.5403,1.1782 -0.9726,1.8141 -0.4323,0.6359 -1.0328,1.2281 -1.8012,1.7767 -0.7686,0.5486 -1.7292,1.0224 -2.882,1.4214 -1.1527,0.399 -2.5458,0.6608 -4.1788,0.7855 -0.072,0.0249 -0.1502,0.0374 -0.2342,0.0374 -0.084,0 -0.1621,0 -0.2342,0l-0.2161 0 -0.9727 0 -15.6346 0 0 -5.0122 5.0075 0 0 -17.3932 -5.0075 0 0 -5.0122 15.6706 0c1.5852,0.0498 2.9421,0.2306 4.0708,0.5423 1.1288,0.3117 2.0774,0.7045 2.846,1.1783 0.7685,0.4738 1.3749,0.9912 1.8192,1.5523 0.4443,0.561 0.7805,1.1159 1.0087,1.6645 0.2281,0.5486 0.3783,1.066 0.4503,1.5523 0.072,0.4862 0.1081,0.8665 0.1081,1.1408 0,0.798 -0.1682,1.6583 -0.5044,2.5809 -0.3362,0.9227 -1.0087,1.7705 -2.0173,2.5436zm-13.0769 -2.0947l4.3229 0c0.4323,0 0.9607,-0.0436 1.585,-0.1309 0.6245,-0.0873 1.237,-0.2307 1.8374,-0.4302 0.6003,-0.1995 1.1287,-0.4551 1.585,-0.7668 0.4563,-0.3117 0.7445,-0.7044 0.8646,-1.1782 0.024,-0.1247 0.036,-0.2182 0.036,-0.2806 0,-0.0623 0,-0.1309 0,-0.2057 0,-0.0499 -0.006,-0.0997 -0.018,-0.1496 -0.012,-0.0499 -0.018,-0.0997 -0.018,-0.1496l0 -0.187 -0.036 -0.0374 0.036 0c-0.024,0 -0.0421,-0.0437 -0.054,-0.131 -0.0121,-0.0872 -0.0301,-0.1558 -0.0541,-0.2057 -0.144,-0.3242 -0.3783,-0.5985 -0.7025,-0.8229 -0.3242,-0.2244 -0.7024,-0.4114 -1.1348,-0.5611 -0.4322,-0.1496 -0.8885,-0.2556 -1.3688,-0.3179 -0.4804,-0.0623 -0.9367,-0.0935 -1.369,-0.0935l-0.1801 0 -5.3316 0 0 5.6481zm5.2595 11.7451c0.0241,0 0.1982,-0.0063 0.5224,-0.0187 0.3243,-0.0125 0.7325,-0.0561 1.2248,-0.1309 0.4924,-0.0749 1.0207,-0.1808 1.5851,-0.318 0.5644,-0.1371 1.0927,-0.3242 1.5851,-0.5611 0.4923,-0.2369 0.9006,-0.5423 1.2248,-0.9164 0.3242,-0.374 0.4863,-0.8229 0.4863,-1.3465 0,-0.5736 -0.1741,-1.0536 -0.5224,-1.4401 -0.3481,-0.3865 -0.7864,-0.7107 -1.3148,-0.9725 -0.5283,-0.2619 -1.0988,-0.4614 -1.7112,-0.5985 -0.6124,-0.1372 -1.1888,-0.2369 -1.7292,-0.2993 -0.5403,-0.0623 -1.0027,-0.0997 -1.3869,-0.1122 -0.3842,-0.0124 -0.6004,-0.0187 -0.6484,-0.0187l-4.5751 0 0 6.7329 5.2595 0z"/>
  </g>
 </g>
</svg>
